<?xml version="1.0" encoding="utf-8"?>
<!-- Generator: Adobe Illustrator 27.1.0, SVG Export Plug-In . SVG Version: 6.00 Build 0)  -->
<svg version="1.1" id="Layer_1" xmlns="http://www.w3.org/2000/svg" xmlns:xlink="http://www.w3.org/1999/xlink" x="0px" y="0px"
	 viewBox="0 0 300 293" style="enable-background:new 0 0 300 293;" xml:space="preserve">
<style type="text/css">
	.st0{fill:#FFFFFF;}
	.st1{fill:#18000A;}
</style>
<path class="st0" d="M53.12,0.29h193.75c29.38,0,53.12,23.75,53.12,53.12v186.25c0,29.38-23.75,53.12-53.12,53.12H53.12
	C23.75,292.79,0,269.04,0,239.67V53.42C0,24.04,23.75,0.29,53.12,0.29z"/>
<g>
	<path class="st1" d="M158,195.65H91.1l-11.07,32.01H44.66l60.4-168.22h39.23l60.4,168.22h-35.62L158,195.65z M148.86,168.69
		l-24.31-70.27l-24.31,70.27H148.86z"/>
	<path class="st1" d="M223.82,88.79c-3.93-3.77-5.9-8.46-5.9-14.08c0-5.61,1.96-10.31,5.9-14.08c3.93-3.77,8.86-5.66,14.8-5.66
		c5.93,0,10.87,1.89,14.8,5.66c3.93,3.77,5.9,8.46,5.9,14.08c0,5.62-1.97,10.31-5.9,14.08c-3.93,3.77-8.87,5.66-14.8,5.66
		C232.69,94.45,227.75,92.56,223.82,88.79z M255.23,109v118.65h-33.69V109H255.23z"/>
</g>
</svg>
