<?xml version="1.0" encoding="utf-8"?>
<!-- Generator: Adobe Illustrator 27.1.0, SVG Export Plug-In . SVG Version: 6.00 Build 0)  -->
<svg version="1.1" id="Layer_1" xmlns="http://www.w3.org/2000/svg" xmlns:xlink="http://www.w3.org/1999/xlink" x="0px" y="0px"
	 viewBox="0 0 300 293" style="enable-background:new 0 0 300 293;" xml:space="preserve">
<style type="text/css">
	.st0{fill:#FFFFFF;}
	.st1{fill-rule:evenodd;clip-rule:evenodd;fill:#18000A;}
</style>
<path class="st0" d="M53.62-0.01h193.75c29.38,0,53.12,23.75,53.12,53.12v186.25c0,29.38-23.75,53.13-53.12,53.13H53.62
	c-29.38,0-53.12-23.75-53.12-53.13V53.11C0.5,23.74,24.25-0.01,53.62-0.01z"/>
<path class="st1" d="M153.94,150.98h-21.91v34.34h22.86c14.96,0,22.88-6,22.88-17.28C177.78,156.77,169.63,150.98,153.94,150.98z"/>
<path class="st1" d="M172.57,119.08c-0.11-0.54-0.24-1.06-0.39-1.56c-0.63-2.01-1.66-3.73-3.07-5.15c-3.18-3.21-8.28-4.9-15.02-4.9
	h-22.06v31.16h18.59c5.38,0,9.85-0.81,13.35-2.38c0.58-0.26,1.14-0.54,1.66-0.84c1.33-0.75,2.47-1.64,3.44-2.65
	c2.51-2.61,3.82-6.05,3.82-10.25C172.89,121.3,172.78,120.15,172.57,119.08z"/>
<path class="st1" d="M153.94,150.98h-21.91v34.34h22.86c14.96,0,22.88-6,22.88-17.28C177.78,156.77,169.63,150.98,153.94,150.98z"/>
<path class="st1" d="M172.57,119.08c-0.11-0.54-0.24-1.06-0.39-1.56c-0.63-2.01-1.66-3.73-3.07-5.15c-3.18-3.21-8.28-4.9-15.02-4.9
	h-22.05v31.16h18.58c5.38,0,9.85-0.81,13.35-2.38c0.58-0.26,1.14-0.54,1.66-0.84c1.33-0.75,2.47-1.64,3.44-2.65
	c2.51-2.61,3.82-6.05,3.82-10.25C172.89,121.3,172.78,120.15,172.57,119.08z"/>
<path class="st1" d="M172.57,119.08c-0.11-0.54-0.24-1.06-0.39-1.56c-0.63-2.01-1.66-3.73-3.07-5.15c-3.18-3.21-8.28-4.9-15.02-4.9
	h-22.06v31.16h18.59c5.38,0,9.85-0.81,13.35-2.38c0.58-0.26,1.14-0.54,1.66-0.84c1.33-0.75,2.47-1.64,3.44-2.65
	c2.51-2.61,3.82-6.05,3.82-10.25C172.89,121.3,172.78,120.15,172.57,119.08z"/>
<path class="st1" d="M153.94,150.98h-21.91v34.34h22.86c14.96,0,22.88-6,22.88-17.28C177.78,156.77,169.63,150.98,153.94,150.98z"/>
<path class="st1" d="M153.94,150.98h-21.91v34.34h22.86c14.96,0,22.88-6,22.88-17.28C177.78,156.77,169.63,150.98,153.94,150.98z"/>
<path class="st1" d="M150.62,138.63c5.38,0,9.85-0.81,13.35-2.38c0.58-0.26,1.14-0.54,1.66-0.84c1.33-0.75,2.47-1.64,3.44-2.65
	c2.51-2.61,3.82-6.05,3.82-10.25c0-1.21-0.11-2.36-0.32-3.43c-0.11-0.54-0.24-1.06-0.39-1.56c-0.63-2.01-1.66-3.73-3.07-5.15
	c-3.18-3.21-8.28-4.9-15.02-4.9h-22.06v31.16H150.62z"/>
<g>
	<path class="st1" d="M251.16,116.89c-4.17-13.52-4.75-30.12-4.31-42.92c0.46-13.33-9.92-25.62-23.97-25.62H78.96
		c-14.05,0-24.44,12.3-23.98,25.62c0.45,12.81-0.13,29.4-4.31,42.92c-4.18,13.57-11.27,22.17-22.84,23.27v12.46
		c11.57,1.1,18.66,9.7,22.84,23.27c4.18,13.53,4.76,30.12,4.31,42.92c-0.46,13.33,9.93,25.62,23.98,25.62h143.92
		c14.06,0,24.44-12.3,23.97-25.62c-0.44-12.81,0.14-29.4,4.31-42.92c4.2-13.57,11.26-22.17,22.84-23.27v-12.46
		C262.43,139.06,255.36,130.46,251.16,116.89z M158.31,198.56h-38.69c-2.3,0-4.18-1.88-4.18-4.18V98.41c0-2.3,1.88-4.17,4.18-4.17
		h38.46c18.95,0,31.38,10.26,31.38,26.02c0,11.06-8.37,20.97-19.02,22.7v0.58c14.5,1.6,24.28,11.64,24.28,25.52
		C194.72,187.42,181.03,198.56,158.31,198.56z"/>
</g>
<path class="st1" d="M153.94,150.98h-21.91v34.34h22.86c14.96,0,22.88-6,22.88-17.28C177.78,156.77,169.63,150.98,153.94,150.98z"/>
<path class="st1" d="M150.62,138.63c5.38,0,9.85-0.81,13.35-2.38c0.58-0.26,1.14-0.54,1.66-0.84c1.33-0.75,2.47-1.64,3.44-2.65
	c2.51-2.61,3.82-6.05,3.82-10.25c0-1.21-0.11-2.36-0.32-3.43c-0.11-0.54-0.24-1.06-0.39-1.56c-0.63-2.01-1.66-3.73-3.07-5.15
	c-3.18-3.21-8.28-4.9-15.02-4.9h-22.06v31.16H150.62z"/>
<path class="st1" d="M172.57,119.08c-0.11-0.54-0.24-1.06-0.39-1.56c-0.63-2.01-1.66-3.73-3.07-5.15c-3.18-3.21-8.28-4.9-15.02-4.9
	h-22.06v31.16h18.59c5.38,0,9.85-0.81,13.35-2.38c0.58-0.26,1.14-0.54,1.66-0.84c1.33-0.75,2.47-1.64,3.44-2.65
	c2.51-2.61,3.82-6.05,3.82-10.25C172.89,121.3,172.78,120.15,172.57,119.08z"/>
<path class="st1" d="M153.94,150.98h-21.91v34.34h22.86c14.96,0,22.88-6,22.88-17.28C177.78,156.77,169.63,150.98,153.94,150.98z"/>
<path class="st1" d="M153.94,150.98h-21.91v34.34h22.86c14.96,0,22.88-6,22.88-17.28C177.78,156.77,169.63,150.98,153.94,150.98z"/>
<path class="st1" d="M172.57,119.08c-0.11-0.54-0.24-1.06-0.39-1.56c-0.63-2.01-1.66-3.73-3.07-5.15c-3.18-3.21-8.28-4.9-15.02-4.9
	h-22.05v31.16h18.58c5.38,0,9.85-0.81,13.35-2.38c0.58-0.26,1.14-0.54,1.66-0.84c1.33-0.75,2.47-1.64,3.44-2.65
	c2.51-2.61,3.82-6.05,3.82-10.25C172.89,121.3,172.78,120.15,172.57,119.08z"/>
</svg>
