<?xml version="1.0" encoding="utf-8"?>
<!-- Generator: Adobe Illustrator 27.1.0, SVG Export Plug-In . SVG Version: 6.00 Build 0)  -->
<svg version="1.1" id="Layer_1" xmlns="http://www.w3.org/2000/svg" xmlns:xlink="http://www.w3.org/1999/xlink" x="0px" y="0px"
	 viewBox="0 0 300 293" style="enable-background:new 0 0 300 293;" xml:space="preserve">
<style type="text/css">
	.st0{fill:#FFFFFF;}
	.st1{fill:#18000A;}
</style>
<path class="st0" d="M53.62-0.01h193.75c29.38,0,53.12,23.75,53.12,53.12v186.25c0,29.38-23.75,53.13-53.12,53.13H53.62
	c-29.38,0-53.12-23.75-53.12-53.13V53.11C0.5,23.74,24.25-0.01,53.62-0.01z"/>
<path class="st1" d="M49.04,33.9l16.49,201.55l82.73,23.25l80.3-23.25L246,34.31L49.04,33.9z M93.24,162.87h24.2l2.03,18.66
	l26.36,6.76l2.44-0.48l26.63-5.21l3.11-32.85h-0.01v0h-29.75v0H92.17l-3.37-23.52l58.26-25.01H87.84l-3.38-24.33h63.81v0.01h60.96
	v23.78l-57.31,23.79h52.58l-6.35,75.83l-49.75,15.82l-0.14-0.04l-51.77-14.42L93.24,162.87z"/>
</svg>
