<?xml version="1.0" encoding="utf-8"?>
<!-- Generator: Adobe Illustrator 27.1.0, SVG Export Plug-In . SVG Version: 6.00 Build 0)  -->
<svg version="1.1" id="Layer_1" xmlns="http://www.w3.org/2000/svg" xmlns:xlink="http://www.w3.org/1999/xlink" x="0px" y="0px"
	 viewBox="0 0 300 293" style="enable-background:new 0 0 300 293;" xml:space="preserve">
<style type="text/css">
	.st0{fill:#FFFFFF;}
	.st1{fill:#18000A;}
</style>
<path class="st0" d="M53.62-0.01h193.75c29.38,0,53.12,23.75,53.12,53.12v186.25c0,29.38-23.75,53.13-53.12,53.13H53.62
	c-29.38,0-53.12-23.75-53.12-53.13V53.11C0.5,23.74,24.25-0.01,53.62-0.01z"/>
<g>
	<rect x="205.81" y="75.52" class="st1" width="38.31" height="19.16"/>
	<rect x="205.81" y="105.62" class="st1" width="38.31" height="19.16"/>
	<rect x="205.81" y="135.72" class="st1" width="38.31" height="19.16"/>
	<rect x="205.81" y="165.82" class="st1" width="38.31" height="19.15"/>
	<rect x="205.81" y="195.92" class="st1" width="38.31" height="19.15"/>
	<path class="st1" d="M271.51,209.74c-0.03-47.48-0.08-94.95,0.05-142.46c-0.19-4.65,0.14-9.8-2.68-13.85
		c-4.02-2.76-9.11-2.44-13.74-2.63c-27.39,0.14-54.78,0.08-82.17,0.08V29h-16.25c-41.98,7.42-83.98,14.61-125.99,21.92v191.52
		c41.76,7.31,83.54,14.31,125.24,21.89h16.99V239.7c28.38-0.05,56.75,0.08,85.1,0c4.57-0.19,11.41-0.33,12.51-6.02
		C272.25,225.83,271.37,217.7,271.51,209.74z M111.32,189.49c-4.65-11.41-10.32-22.44-13.66-34.37
		c-3.72,11.11-9.03,21.59-13.3,32.48c-5.99-0.08-11.99-0.33-17.98-0.58c7.03-13.76,13.82-27.64,21.07-41.32
		c-6.16-14.09-12.92-27.91-19.26-41.92c6.02-0.36,12.04-0.71,18.06-1.04c4.08,10.7,8.54,21.26,11.91,32.24
		c3.61-11.63,9-22.57,13.63-33.82c6.18-0.44,12.4-0.82,18.61-1.12c-7.3,14.98-14.66,29.93-22.08,44.85
		c7.53,15.32,15.21,30.54,22.77,45.86C124.49,190.37,117.9,189.95,111.32,189.49z M263.27,231.49h-90.3v-16.42h21.89v-19.15h-21.89
		v-10.95h21.89v-19.15h-21.89v-10.95h21.89v-19.16h-21.89v-10.95h21.89v-19.16h-21.89V94.67h21.89V75.52h-21.89V59.1h90.3V231.49z"
		/>
	<rect x="205.81" y="75.52" class="st1" width="38.31" height="19.16"/>
	<rect x="205.81" y="105.62" class="st1" width="38.31" height="19.16"/>
	<rect x="205.81" y="135.72" class="st1" width="38.31" height="19.16"/>
	<rect x="205.81" y="165.82" class="st1" width="38.31" height="19.15"/>
	<rect x="205.81" y="195.92" class="st1" width="38.31" height="19.15"/>
	<rect x="205.81" y="75.52" class="st1" width="38.31" height="19.16"/>
	<path class="st1" d="M205.81,105.62v19.16h38.31v-19.16H205.81z M205.81,135.72v19.16h38.31v-19.16H205.81z M205.81,165.82v19.15
		h38.31v-19.15H205.81z M205.81,195.92v19.15h38.31v-19.15H205.81z"/>
</g>
</svg>
