<?xml version="1.0" encoding="utf-8"?>
<!-- Generator: Adobe Illustrator 27.1.0, SVG Export Plug-In . SVG Version: 6.00 Build 0)  -->
<svg version="1.1" id="Layer_1" xmlns="http://www.w3.org/2000/svg" xmlns:xlink="http://www.w3.org/1999/xlink" x="0px" y="0px"
	 viewBox="0 0 300 293" style="enable-background:new 0 0 300 293;" xml:space="preserve">
<style type="text/css">
	.st0{fill:#FFFFFF;}
	.st1{fill:#18000A;}
</style>
<path class="st0" d="M53.62-0.01h193.75c29.38,0,53.12,23.75,53.12,53.12v186.25c0,29.38-23.75,53.13-53.12,53.13H53.62
	c-29.38,0-53.12-23.75-53.12-53.13V53.11C0.5,23.74,24.25-0.01,53.62-0.01z"/>
<g>
	<path class="st1" d="M153.34,156.21h-92.9c0.73,9.71,4.34,17.51,10.81,23.39c6.47,5.89,14.42,8.83,23.83,8.83
		c13.53,0,23.1-5.66,28.69-16.99h27.14c-3.68,11.18-10.34,20.34-19.97,27.47c-9.64,7.14-21.59,10.7-35.86,10.7
		c-11.62,0-22.03-2.61-31.23-7.83c-9.2-5.22-16.41-12.58-21.63-22.07c-5.22-9.49-7.83-20.48-7.83-32.99c0-12.5,2.54-23.5,7.61-32.99
		c5.08-9.49,12.21-16.81,21.41-21.96c9.19-5.15,19.75-7.72,31.67-7.72c11.48,0,21.7,2.5,30.67,7.5c8.97,5,15.96,12.03,20.96,21.07
		c5,9.05,7.5,19.46,7.5,31.23C154.22,148.41,153.92,152.53,153.34,156.21z M127.96,135.91c-0.15-9.27-3.46-16.7-9.93-22.29
		c-6.48-5.59-14.49-8.39-24.05-8.39c-8.68,0-16.11,2.76-22.29,8.28c-6.18,5.52-9.86,12.99-11.03,22.4H127.96z"/>
	<path class="st1" d="M225.72,146.06L265,207.63h-28.47l-26.26-41.27l-24.72,41.27H159.3l39.28-59.8L159.3,86.03h28.47l26.26,41.27
		l24.72-41.27H265L225.72,146.06z"/>
</g>
</svg>
