<?xml version="1.0" encoding="utf-8"?>
<!-- Generator: Adobe Illustrator 27.1.0, SVG Export Plug-In . SVG Version: 6.00 Build 0)  -->
<svg version="1.1" id="Layer_1" xmlns="http://www.w3.org/2000/svg" xmlns:xlink="http://www.w3.org/1999/xlink" x="0px" y="0px"
	 viewBox="0 0 300 293" style="enable-background:new 0 0 300 293;" xml:space="preserve">
<style type="text/css">
	.st0{fill:#FFFFFF;}
	.st1{fill:#18000A;}
</style>
<path class="st0" d="M53.62-0.01h193.75c29.38,0,53.12,23.75,53.12,53.12v186.25c0,29.38-23.75,53.13-53.12,53.13H53.62
	c-29.38,0-53.12-23.75-53.12-53.13V53.11C0.5,23.74,24.25-0.01,53.62-0.01z"/>
<path class="st1" d="M212.03,109.59c11.9-7.8,19.8-21.32,19.8-36.64c0-24.17-19.7-43.78-43.78-43.78h-75.19
	c-24.17,0-43.78,19.7-43.78,43.78c0,15.32,7.9,28.84,19.8,36.64c-11.9,7.8-19.8,21.32-19.8,36.64s7.9,28.84,19.8,36.64
	c-11.9,7.8-19.8,21.32-19.8,36.64c0,24.17,19.8,43.78,44.07,43.78c24.56,0,44.54-19.89,44.54-44.26V178.6
	c7.8,7.04,18.18,11.42,29.5,11.42h0.95c24.17,0,43.78-19.7,43.78-43.78C231.83,130.91,223.93,117.4,212.03,109.59L212.03,109.59z
	 M143.31,219.05c0,16.47-13.52,29.98-30.17,29.98c-16.37,0-29.7-13.23-29.7-29.5s13.23-29.41,29.41-29.5h30.46V219.05z
	 M143.31,175.74h-30.46c-16.28,0-29.41-13.23-29.41-29.5s13.23-29.5,29.5-29.5h30.46v59.01H143.31z M143.31,102.46h-30.46
	c-16.28,0-29.5-13.23-29.5-29.5s13.23-29.5,29.5-29.5h30.46V102.46z M157.59,43.45h30.46c16.28,0,29.5,13.23,29.5,29.5
	s-13.23,29.5-29.5,29.5h-30.46V43.45z M188.05,175.74h-0.95c-16.28,0-29.5-13.23-29.5-29.5s13.23-29.5,29.5-29.5h0.95
	c16.28,0,29.5,13.23,29.5,29.5S204.32,175.74,188.05,175.74z"/>
</svg>
