<?xml version="1.0" encoding="utf-8"?>
<!-- Generator: Adobe Illustrator 27.1.0, SVG Export Plug-In . SVG Version: 6.00 Build 0)  -->
<svg version="1.1" id="Layer_1" xmlns="http://www.w3.org/2000/svg" xmlns:xlink="http://www.w3.org/1999/xlink" x="0px" y="0px"
	 viewBox="0 0 300 293" style="enable-background:new 0 0 300 293;" xml:space="preserve">
<style type="text/css">
	.st0{fill:#FFFFFF;}
	.st1{opacity:0.6;fill:#18000A;enable-background:new    ;}
	.st2{opacity:0.75;fill:#18000A;enable-background:new    ;}
	.st3{fill:#18000A;}
</style>
<path class="st0" d="M53.62-0.01h193.75c29.38,0,53.12,23.75,53.12,53.12v186.25c0,29.38-23.75,53.13-53.12,53.13H53.62
	c-29.38,0-53.12-23.75-53.12-53.13V53.11C0.5,23.74,24.25-0.01,53.62-0.01z"/>
<g>
	<path class="st1" d="M68.96,215.08l1.35-1.9L134.4,91l0.14-0.74l-28.26-53.07c-2.37-4.45-9.04-3.33-9.81,1.65L68.96,215.08z"/>
	<path class="st1" d="M155.56,130l21.04-21.54l-21.05-40.18c-2-3.8-7.58-3.81-9.55,0l-11.46,21.99L134.4,91l20.46,38.99L155.56,130z
		"/>
	<path class="st2" d="M68.96,216.07l0.61-0.62l2.23-0.91l82.02-81.72l1.04-2.83L134.4,91L68.96,216.07z"/>
	<path class="st3" d="M157.77,256.29l74.23-41.4L210.81,84.34c-0.66-4.09-5.68-5.7-8.6-2.77L68.96,215.08l73.81,41.21
		C147.42,258.89,153.11,258.89,157.77,256.29"/>
</g>
</svg>
