<?xml version="1.0" encoding="utf-8"?>
<!-- Generator: Adobe Illustrator 27.1.0, SVG Export Plug-In . SVG Version: 6.00 Build 0)  -->
<svg version="1.1" id="Layer_1" xmlns="http://www.w3.org/2000/svg" xmlns:xlink="http://www.w3.org/1999/xlink" x="0px" y="0px"
	 viewBox="0 0 300 293" style="enable-background:new 0 0 300 293;" xml:space="preserve">
<style type="text/css">
	.st0{fill:#FFFFFF;}
	.st1{fill:#18000A;}
</style>
<path class="st0" d="M53.62-0.01h193.75c29.38,0,53.12,23.75,53.12,53.12v186.25c0,29.38-23.75,53.13-53.12,53.13H53.62
	c-29.38,0-53.12-23.75-53.12-53.13V53.11C0.5,23.74,24.25-0.01,53.62-0.01z"/>
<path class="st1" d="M256.72,135.23l-99.24-99.24c-5.71-5.72-14.98-5.72-20.7,0L116.17,56.6l26.15,26.15
	c6.07-2.06,13.04-0.67,17.88,4.16c4.86,4.87,6.23,11.9,4.13,17.99l25.19,25.19c6.1-2.09,13.13-0.75,17.99,4.14
	c6.81,6.8,6.81,17.82,0,24.63c-6.81,6.81-17.83,6.81-24.64,0c-5.12-5.12-6.38-12.64-3.8-18.95l-23.49-23.49v61.82
	c1.7,0.85,3.26,1.96,4.6,3.29c6.81,6.8,6.81,17.82,0,24.64c-6.81,6.8-17.83,6.8-24.63,0c-6.81-6.81-6.81-17.83,0-24.63
	c1.63-1.63,3.56-2.93,5.71-3.8v-62.42c-2.13-0.87-4.08-2.17-5.71-3.8c-5.16-5.14-6.39-12.71-3.75-19.04l-25.77-25.78L38,134.76
	c-5.72,5.72-5.72,14.99,0,20.71l99.24,99.24c5.72,5.72,14.98,5.72,20.7,0l98.77-98.77C262.43,150.22,262.43,140.93,256.72,135.23"/>
</svg>
