<?xml version="1.0" encoding="utf-8"?>
<!-- Generator: Adobe Illustrator 27.1.0, SVG Export Plug-In . SVG Version: 6.00 Build 0)  -->
<svg version="1.1" id="Layer_1" xmlns="http://www.w3.org/2000/svg" xmlns:xlink="http://www.w3.org/1999/xlink" x="0px" y="0px"
	 viewBox="0 0 300 293" style="enable-background:new 0 0 300 293;" xml:space="preserve">
<style type="text/css">
	.st0{fill:#FFFFFF;}
	.st1{fill:#18000A;}
</style>
<path class="st0" d="M53.12,0.29h193.75c29.38,0,53.12,23.75,53.12,53.12v186.25c0,29.38-23.75,53.12-53.12,53.12H53.12
	C23.75,292.79,0,269.04,0,239.67V53.42C0,24.04,23.75,0.29,53.12,0.29z"/>
<g>
	<path class="st1" d="M150.49,30.17c-66,0-119.51,53.51-119.51,119.51c0,52.8,34.24,97.6,81.73,113.41
		c5.97,1.11,8.17-2.59,8.17-5.75c0-2.85-0.11-12.26-0.16-22.25c-33.25,7.23-40.27-14.1-40.27-14.1
		c-5.44-13.81-13.27-17.49-13.27-17.49c-10.84-7.42,0.82-7.27,0.82-7.27c12,0.84,18.32,12.32,18.32,12.32
		c10.66,18.27,27.96,12.99,34.78,9.94c1.07-7.73,4.17-13,7.59-15.98c-26.54-3.02-54.45-13.27-54.45-59.06
		c0-13.05,4.67-23.71,12.31-32.08c-1.24-3.01-5.33-15.17,1.16-31.63c0,0,10.04-3.21,32.87,12.25c9.53-2.65,19.76-3.98,29.91-4.02
		c10.16,0.04,20.39,1.37,29.94,4.02c22.81-15.46,32.83-12.25,32.83-12.25c6.5,16.46,2.41,28.62,1.17,31.63
		c7.66,8.37,12.3,19.03,12.3,32.08c0,45.9-27.96,56.01-54.57,58.97c4.29,3.71,8.11,10.98,8.11,22.13c0,15.99-0.14,28.86-0.14,32.8
		c0,3.18,2.15,6.91,8.21,5.73C235.8,247.25,270,202.47,270,149.69C270,83.68,216.49,30.17,150.49,30.17"/>
	<path class="st1" d="M75.74,200.42c-0.26,0.59-1.2,0.77-2.05,0.36c-0.87-0.39-1.35-1.2-1.07-1.8c0.26-0.61,1.19-0.78,2.06-0.37
		C75.54,199.01,76.04,199.83,75.74,200.42 M81.62,205.67c-0.57,0.53-1.68,0.28-2.44-0.55c-0.78-0.83-0.93-1.95-0.35-2.48
		c0.59-0.53,1.67-0.28,2.45,0.55C82.06,204.03,82.21,205.13,81.62,205.67 M85.65,212.38c-0.73,0.51-1.93,0.03-2.67-1.03
		c-0.73-1.06-0.73-2.34,0.02-2.85c0.74-0.51,1.92-0.05,2.67,1C86.4,210.58,86.4,211.86,85.65,212.38 M92.47,220.15
		c-0.66,0.72-2.05,0.53-3.07-0.46c-1.04-0.96-1.34-2.33-0.68-3.05c0.66-0.72,2.07-0.52,3.1,0.46
		C92.85,218.06,93.17,219.44,92.47,220.15 M101.28,222.78c-0.29,0.94-1.63,1.36-2.99,0.96c-1.35-0.41-2.24-1.51-1.96-2.45
		c0.28-0.94,1.63-1.39,2.99-0.96C100.68,220.73,101.57,221.82,101.28,222.78 M111.32,223.89c0.03,0.99-1.11,1.8-2.54,1.82
		c-1.43,0.03-2.59-0.77-2.6-1.74c0-1,1.12-1.81,2.55-1.83C110.15,222.12,111.32,222.91,111.32,223.89 M121.17,223.51
		c0.17,0.96-0.82,1.95-2.23,2.21c-1.39,0.25-2.67-0.34-2.85-1.29c-0.17-0.99,0.83-1.97,2.22-2.23
		C119.73,221.95,120.99,222.53,121.17,223.51"/>
</g>
</svg>
