<?xml version="1.0" encoding="utf-8"?>
<!-- Generator: Adobe Illustrator 27.1.0, SVG Export Plug-In . SVG Version: 6.00 Build 0)  -->
<svg version="1.1" id="Layer_1" xmlns="http://www.w3.org/2000/svg" xmlns:xlink="http://www.w3.org/1999/xlink" x="0px" y="0px"
	 viewBox="0 0 300 293" style="enable-background:new 0 0 300 293;" xml:space="preserve">
<style type="text/css">
	.st0{fill:#FFFFFF;}
	.st1{fill:#18000A;}
</style>
<path class="st0" d="M53.62-0.01h193.75c29.38,0,53.12,23.75,53.12,53.12v186.25c0,29.38-23.75,53.13-53.12,53.13H53.62
	c-29.38,0-53.12-23.75-53.12-53.13V53.11C0.5,23.74,24.25-0.01,53.62-0.01z"/>
<path class="st1" d="M48.8,34l16.46,201.15l82.57,23.2l80.14-23.2l17.4-200.75L48.8,34z M95.48,201.7l-3.37-39.13h24.69l1.49,19.16
	l27.92,8.1l1.62-0.43l25.91-6.99l3.37-32.11l0,0v0h-29.28v0H91.17l-6.88-75.28h124.52l-2.3,24.55h-58.69v0.01H111.4l2.57,25.77
	h90.25l-6.88,76.35l-49.52,13.72v0l-1.61,0.45L95.48,201.7z"/>
</svg>
