<?xml version="1.0" encoding="utf-8"?>
<!-- Generator: Adobe Illustrator 27.1.0, SVG Export Plug-In . SVG Version: 6.00 Build 0)  -->
<svg version="1.1" id="Layer_1" xmlns="http://www.w3.org/2000/svg" xmlns:xlink="http://www.w3.org/1999/xlink" x="0px" y="0px"
	 viewBox="0 0 300 293" style="enable-background:new 0 0 300 293;" xml:space="preserve">
<style type="text/css">
	.st0{fill:#FFFFFF;}
	.st1{fill:#18000A;}
</style>
<path class="st0" d="M53.62-0.01h193.75c29.38,0,53.12,23.75,53.12,53.12v186.25c0,29.38-23.75,53.13-53.12,53.13H53.62
	c-29.38,0-53.12-23.75-53.12-53.13V53.11C0.5,23.74,24.25-0.01,53.62-0.01z"/>
<g>
	<path class="st1" d="M272,237.09c-9.22,31.54-60.64,32.58-81.18,11.73c-4.34-4.9-7.07-7.46-9.65-13.12
		c10.91-6.29,10.91-6.29,21.54-12.44c5.78,8.87,11.11,13.75,20.71,15.75c13.02,1.59,26.13-2.88,23.19-16.71
		c-3.02-11.31-26.66-14.05-42.76-26.13c-16.34-10.98-20.18-37.65-6.74-52.88c4.48-5.64,12.1-9.83,20.11-11.87
		c2.78-0.35,5.59-0.72,8.37-1.07c16.04-0.33,26.07,3.91,33.43,12.13c2.06,2.07,3.73,4.31,6.86,9.16
		c-8.55,5.45-8.52,5.39-20.77,13.32c-2.62-5.64-6.95-9.16-11.54-10.7c-7.11-2.15-16.1,0.2-17.96,7.72
		c-0.64,2.31-0.51,4.47,0.51,8.31c2.89,6.58,12.56,9.44,21.26,13.42c24.99,10.14,33.43,21,35.51,33.95
		C274.86,228.79,272.38,236.01,272,237.09z"/>
	<path class="st1" d="M161.94,244.59c-4.18,8.5-12.17,14.08-21.41,16.77c-14.21,3.27-27.8,1.41-37.91-4.66
		c-6.76-4.16-12.05-10.54-15.64-17.91c7.21-4.39,14.38-8.81,21.57-13.22c0.19,0.08,0.75,1.11,1.51,2.43
		c2.75,4.61,5.12,7.88,9.79,10.17c4.59,1.56,14.64,2.56,18.53-5.5c2.37-4.1,1.62-17.48,1.62-32.07c0-22.92,0.11-45.68,0.11-68.6
		h26.52c0,24.41,0.14,48.72,0,73.05C166.69,219.97,167.98,233.45,161.94,244.59z"/>
</g>
</svg>
