<?xml version="1.0" encoding="utf-8"?>
<!-- Generator: Adobe Illustrator 27.1.0, SVG Export Plug-In . SVG Version: 6.00 Build 0)  -->
<svg version="1.1" id="Layer_1" xmlns="http://www.w3.org/2000/svg" xmlns:xlink="http://www.w3.org/1999/xlink" x="0px" y="0px"
	 viewBox="0 0 300 293" style="enable-background:new 0 0 300 293;" xml:space="preserve">
<style type="text/css">
	.st0{fill:#FFFFFF;}
	.st1{fill:#555454;}
	.st2{fill:#18000A;}
</style>
<path class="st0" d="M53.6,0h193.8c29.4,0,53.1,23.8,53.1,53.1v186.2c0,29.4-23.8,53.1-53.1,53.1H53.6c-29.4,0-53.1-23.8-53.1-53.1
	V53.1C0.5,23.7,24.2,0,53.6,0z"/>
<g>
	<path class="st1" d="M141.9,243.7c4.4,0,8.9,0,13.3,0.1c0.5,0,1.1,0.2,1.6,0.3c-5.5,0-11,0-16.5,0c-0.5,0-0.9-0.2-1.4-0.3
		C140,243.7,141,243.7,141.9,243.7z"/>
	<path class="st2" d="M141.9,243.7c-1,0-2,0.1-2.9,0.1c-0.9,0-1.7,0-2.6,0c-0.1,0-0.2-0.1-0.3-0.1c0-0.4,0-0.8,0.1-1.2
		c0.9,0.1,1.8,0.2,2.6,0.3C139.9,243,140.9,243.4,141.9,243.7z"/>
	<g>
		<path class="st2" d="M247.4,162.8c-16.5-5.3-33-10.7-49.4-16.2c0.5-0.2,0.9-0.5,1.4-0.7c5-1.6,9.9-3.2,14.9-4.9
			c10.5-3.5,21-7,31.5-10.3c1.6-0.5,1.2-1.3,0.9-2.2c-1.2-3.6-2.5-7.1-3.6-10.7c-1.5-4.4-3-8.8-4.2-13.3c-0.4-1.6-1.2-1.7-2.4-1.4
			c-10.9,3.6-21.9,7.2-32.8,10.7c-4,1.3-7.9,2.5-11.9,3.7c-1.1,0.2-2.1,0.5-3.2,0.7c0.5-0.7,1-1.4,1.5-2c0.4-0.6,0.9-1.2,1.3-1.8
			c7.2-9.9,14.4-19.9,21.6-29.8c1.6-2.3,3.3-4.5,5-6.8c0.5-0.7,1.1-1.5,0-2.3c-7-5-14-10.1-20.9-15.2c-0.9-0.6-1.7-0.6-2.3,0.3
			c-0.7,1-1.4,1.9-2.1,2.9c-4.9,6.8-9.9,13.6-14.8,20.4c-4,5.6-8,11.2-12,16.9c-0.2,1.3-0.5,2.6-0.5,4c-0.1,7,0,14,0,21
			c1.8-0.5,3.7-0.8,5.5-1.4c5.7-1.8,11.4-3.6,17.1-5.4c-4.2,6.9-9.1,13.4-14.1,19.8c7.5,2.7,15.6,4.5,22.9,7.8
			c-7.4,2.6-15.7,4.3-22.7,7.8c4.6,6.2,10.5,12.5,14,19.4c-3-0.9-5.9-1.7-8.9-2.6c-4.3-1.4-8.5-2.8-12.8-4.2c-1-0.7-1.3-0.3-1.3,0.8
			c0,5.7,0.1,11.4,0.1,17.1c0,1.5,0,3.1-0.1,4.6c0,0.4-0.3,0.9-0.5,1.3c0.2,0.5,0.4,1,0.6,1.5c0.2,0,0.4,0,0.6,0
			c-0.1-2.5-0.3-5-0.4-7.4h0c0.1,2.5,0.3,5,0.4,7.4c10,13.8,20,27.7,30.1,41.6c5.9-3.8,11.5-8.1,17.1-12.3c1.5-1.1,6.2-3.2,6.2-5.3
			c0-2.1-4-5.6-5.2-7.3c-4.3-5.7-8.4-11.5-12.7-17.3c-4-5.5-8.9-11-11.9-17.1c16.3,5.6,32.7,10.9,49.2,15.9
			C241.5,181,244.4,171.9,247.4,162.8z"/>
		<path class="st2" d="M160.9,185.4c-0.5-0.7-1-1.5-1.4-2.2c-0.1-0.2-0.2-0.4-0.3-0.6c-1.5-2.1-3-4.1-4.5-6.2
			c-0.5-0.6-0.9-1.3-1.4-1.9c-0.3-0.2-0.6-0.5-0.9-0.7c-1-2.1-2.2-2.2-3.6-0.4c-0.6,0.7-1.1,1.4-1.6,2.1c-0.1,0.1-0.2,0.2-0.3,0.3
			c-2,2.9-3.9,5.8-5.9,8.6c-1.5,2.1-3.2,4.2-4.8,6.3c-1.5-7.6-0.4-16.3-0.4-24c-3.7,1.3-7.4,2.5-11.2,3.7c-3.6,1.1-8,3.4-11.8,3.5
			c2.3-3.5,4.7-6.9,7.1-10.3c1.3-1.8,6.5-6.8,6.4-8.8c-0.1-1.6-8.1-3.2-9.7-3.7c-3.9-1.2-9.4-2-12.7-4.4c3.9-1.4,7.8-2.9,11.7-4.1
			c1.8-0.6,10-2,10.6-3.7c0.6-1.8-5.2-7.8-6.4-9.4c-2.3-3.2-5.4-6.4-7.1-9.9c-0.8-0.6-1.5-1.1-2.3-1.7c-10.9-1.7-21.9-6.6-32.5-9.9
			c-2.8-0.9-5.7-1.8-8.5-2.7c-1.4-0.4-5.8-2.7-7.1-2c-1.3,0.7-1.8,4.9-2.3,6.3c-0.8,2.6-1.7,5.2-2.5,7.7c-0.9,2.8-5.4,11.6-3.1,13.6
			c1.6,1.4,5.7,1.8,7.8,2.5c2.6,0.8,5.2,1.7,7.8,2.6c10.5,3.5,22,6.1,32.1,10.8c-6.8,4.1-16.2,5.8-23.7,8.2
			c-8.3,2.7-16.6,5.4-24.9,8c2.2,6.7,4.4,13.4,6.5,20.1c0.5,1.7,1.1,6.3,3,7c1.5,0.6,6.5-1.9,8-2.4c13.4-4.3,26.7-9.1,40.4-12.7
			c-7.4,12.4-16.9,23.9-25.5,35.6c-0.9,1.3-4,4.1-3.5,6.1c0.5,1.7,4.3,3.8,5.6,4.7c5.6,4.1,11.3,8.2,17,12.4
			c10-14.1,20.3-28,30.7-41.8c0,1.7,0,3.4,0,5.1c0,14.8,0,29.6,0,44.4c0,0.3-0.3,2.8,0.4,2.5c0-0.4,0-0.8,0.1-1.2
			c0-13.3,0-26.6-0.1-39.9c0,13.3,0,26.6,0.1,39.9c0.9,0.1,1.8,0.2,2.6,0.3c1.1,0.2,2.1,0.6,3.1,0.9c4.4,0,8.9,0,13.3,0.1
			c0.5,0,1.1,0.2,1.6,0.3c2.7-0.1,5.3-0.2,8-0.3c0.1-0.4,0.4-0.8,0.4-1.2c0-2.4,0-4.8,0-7.3c0-12.7,0-25.4,0-38.1
			c-0.1-0.2-0.2-0.4-0.3-0.6c0-1.4,0.1-2.8,0.1-4.2c-0.2-0.5-0.4-1-0.6-1.5C163.2,188.9,162,187.1,160.9,185.4z"/>
		<path class="st2" d="M123.9,122.6c3.7,1.2,8,3.4,12,3.5c0-1,0-2,0-2.9c0-6.5,0-13,0-19.5c0-0.7-0.1-1.3-0.1-2c0,0,0,0,0,0
			c0,0,0,0,0,0l0,0c0,0,0,0,0,0c0,0,0,0,0,0c-4.2-7.2-9.7-13.8-14.6-20.6c-5.4-7.3-10.7-14.7-16.1-22c-5.7,3.5-11,7.8-16.5,11.8
			c-1.3,0.9-6.6,3.7-6.9,5.4c-0.3,1.7,4.1,6.2,5,7.5c4.3,5.9,8.6,11.8,12.9,17.7c3.6,4.9,9,10.3,10.9,16.1c0.8,0.6,1.5,1.1,2.3,1.7
			C116.5,120.4,120.2,121.4,123.9,122.6z"/>
		<path class="st2" d="M137.4,103.8c0.7,1.1,1.3,2.1,2,3.2c2,2.7,4.1,5.3,6.1,8c0.7,1,1.3,2,2,3c1,1.2,1.9,2.4,3,3.8
			c2.5-3.2,4.9-6.4,7.3-9.7c1.9-2.6,4-7.1,6.6-8.9c0.2-0.7,0.4-1.5,0.7-2.2c0.1-0.6,0.2-1.3,0.2-1.9c0-7,0-14.1,0-21.1
			c0-2.8,0-5.6,0-8.4c0-6.4,0-12.9,0-19.3c0-0.3-0.2-0.5-0.4-0.8c-1,0-1.9-0.1-2.9-0.1c-0.5,0-1.1,0-1.6,0c-0.6-0.1-1.1-0.3-1.7-0.3
			c-6.9,0-13.8,0-20.7-0.1c-0.8,0.1-1.5,0.3-2.3,0.4c0,0.4,0,0.8-0.1,1.3c0,0.6,0.1,1.3,0.1,1.9c0,8.9,0,17.7,0,26.6
			c0,5.4-0.1,10.8-0.1,16.2c0,2.2,0.1,4.3,0.1,6.5c0.1,0,0.2,0,0.3,0C136.5,102.5,137,103.1,137.4,103.8z M136.1,81
			c0,6.5,0,13,0,19.5c0.2,0,0.4,0,0.6,0c-0.2,0-0.4,0-0.6,0C136.1,94,136.1,87.5,136.1,81z"/>
	</g>
</g>
</svg>
