<?xml version="1.0" encoding="utf-8"?>
<!-- Generator: Adobe Illustrator 27.1.0, SVG Export Plug-In . SVG Version: 6.00 Build 0)  -->
<svg version="1.1" id="Layer_1" xmlns="http://www.w3.org/2000/svg" xmlns:xlink="http://www.w3.org/1999/xlink" x="0px" y="0px"
	 viewBox="0 0 300 293" style="enable-background:new 0 0 300 293;" xml:space="preserve">
<style type="text/css">
	.st0{fill:#FFFFFF;}
	.st1{opacity:0.96;fill:#18000A;enable-background:new    ;}
	.st2{fill:#18000A;}
	.st3{opacity:0.77;fill:#18000A;enable-background:new    ;}
</style>
<path class="st0" d="M53.62-0.01h193.75c29.38,0,53.12,23.75,53.12,53.12v186.25c0,29.38-23.75,53.13-53.12,53.13H53.62
	c-29.38,0-53.12-23.75-53.12-53.13V53.11C0.5,23.74,24.25-0.01,53.62-0.01z"/>
<g>
	<path class="st1" d="M150.19,29.63l6.28,11.79c1.4,2.17,2.94,4.1,4.73,5.89c5.28,5.2,10.19,10.77,14.71,16.65
		c10.63,13.95,17.8,29.45,22.9,46.2c3.07,10.22,4.73,20.74,4.86,31.35c0.51,31.76-10.37,59-32.3,81.66
		c-3.55,3.59-7.43,6.89-11.53,9.84c-2.17,0-3.2-1.66-4.1-3.2c-1.64-2.85-2.71-5.97-3.2-9.21c-0.78-3.85-1.28-7.68-1.03-11.64v-1.8
		C151.33,206.77,149.43,30.54,150.19,29.63L150.19,29.63z"/>
	<path class="st2" d="M150.19,29.24c-0.26-0.51-0.51-0.13-0.78,0.13c0.13,2.56-0.78,4.86-2.17,7.05c-1.54,2.17-3.59,3.85-5.64,5.64
		c-11.37,9.84-20.34,21.76-27.5,35.07c-9.55,17.92-14.46,37.13-15.85,57.35c-0.64,7.29,2.31,33.01,4.62,40.44
		c6.28,19.71,17.53,36.23,32.13,50.55c3.59,3.46,7.43,6.66,11.37,9.73c1.16,0,1.28-1.03,1.54-1.8c0.51-1.64,0.89-3.3,1.16-4.98
		l2.56-19.19L150.19,29.24z"/>
	<path class="st3" d="M156.46,240.79c0.26-2.94,1.66-5.36,3.2-7.8c-1.54-0.64-2.69-1.91-3.59-3.32c-0.78-1.34-1.4-2.76-1.91-4.23
		c-1.8-5.36-2.17-11.02-2.69-16.5v-3.32c-0.64,0.51-0.78,4.86-0.78,5.51c-0.37,5.81-1.15,11.57-2.31,17.28
		c-0.38,2.31-0.64,4.62-2.05,6.66c0,0.26,0,0.51,0.13,0.89c2.31,6.79,2.94,13.69,3.32,20.74v2.56c0,3.07-0.13,2.43,2.43,3.46
		c1.03,0.38,2.17,0.51,3.2,1.28c0.78,0,0.89-0.64,0.89-1.16l-0.38-4.23v-11.79C155.82,244.78,156.19,242.74,156.46,240.79
		L156.46,240.79z"/>
</g>
</svg>
