<?xml version="1.0" encoding="utf-8"?>
<!-- Generator: Adobe Illustrator 27.1.0, SVG Export Plug-In . SVG Version: 6.00 Build 0)  -->
<svg version="1.1" id="Layer_1" xmlns="http://www.w3.org/2000/svg" xmlns:xlink="http://www.w3.org/1999/xlink" x="0px" y="0px"
	 viewBox="0 0 300 293" style="enable-background:new 0 0 300 293;" xml:space="preserve">
<style type="text/css">
	.st0{fill:#FFFFFF;}
	.st1{fill:#18000A;}
</style>
<path class="st0" d="M53.12,0.29h193.75c29.38,0,53.12,23.75,53.12,53.12v186.25c0,29.38-23.75,53.12-53.12,53.12H53.12
	C23.75,292.79,0,269.04,0,239.67V53.42C0,24.04,23.75,0.29,53.12,0.29z"/>
<path class="st1" d="M173.46,180.64l-57.07-11.93c-0.24,0.46-0.5,0.91-0.8,1.34l51.95,75.79l3.13-3.13l8.84-54.97
	C176.49,186.47,174.25,183.83,173.46,180.64L173.46,180.64z M152.64,106.04c-2.14,3.28-5.83,5.45-10.03,5.45
	c-0.65,0-1.28-0.07-1.89-0.16l-26.03,40.72l69.53-29.92c-0.02-0.28-0.08-0.54-0.08-0.83c0-0.59,0.08-1.15,0.17-1.71L152.64,106.04
	L152.64,106.04z M154.53,98.62l33.69,14.41c1.07-0.84,2.3-1.46,3.61-1.83l5.54-34.43l-21.1-21.1l-23.75,37.16
	C153.7,94.55,154.39,96.54,154.53,98.62L154.53,98.62z M225.13,104.52l-21.14-21.15l-4.6,28.55c1.17,0.59,2.21,1.38,3.09,2.35
	L225.13,104.52z M174.47,173.12c1.68-3.05,4.79-5.05,8.26-5.31l6.07-37.77c-0.48-0.32-0.9-0.69-1.32-1.08l-69.93,30.1
	c0.18,0.73,0.3,1.48,0.36,2.25L174.47,173.12z M230.89,110.28l-24.46,10.53l60.36,25.8l0.22-0.22L230.89,110.28L230.89,110.28z
	 M187.17,187.86l-7.35,45.71l42.69-42.69l-30.75-6.42C190.58,186,188.99,187.18,187.17,187.86z M104.2,176.11
	c-1.55,0-3.03-0.27-4.41-0.74l-14.18,22.19l-5.48-5.48l13.43-21.02c-0.33-0.41-0.64-0.84-0.93-1.29L68.3,180.26l-5.77-5.77
	l26.63-11.46l-48.15-10.05l-6.59-6.59l2.08-2.08l55.52,11.59c0.64-1.21,1.46-2.32,2.43-3.29L67.52,113.3l5.44-5.44l28.16,41.07
	c1.01-0.23,2.05-0.36,3.08-0.36c1.19,0,2.34,0.17,3.44,0.45l26.35-41.22c-2.14-2.23-3.34-5.2-3.34-8.29c0-0.95,0.12-1.86,0.33-2.74
	L98.1,82.72l5.77-5.77l31.14,13.32c3.21-2.65,7.57-3.43,11.5-2.06l24.29-38.02l-20.15-20.15L34.3,146.39l116.35,116.35l11.45-11.45
	l-52.34-76.36C108.01,175.71,106.11,176.11,104.2,176.11L104.2,176.11z M196.21,131.67l-6.18,38.39c2.18,1.75,3.56,4.32,3.81,7.1
	l35.06,7.32l32.1-32.1l-57.95-24.78C201.41,129.81,198.94,131.27,196.21,131.67L196.21,131.67z"/>
</svg>
