<?xml version="1.0" encoding="utf-8"?>
<!-- Generator: Adobe Illustrator 27.1.0, SVG Export Plug-In . SVG Version: 6.00 Build 0)  -->
<svg version="1.1" id="Layer_1" xmlns="http://www.w3.org/2000/svg" xmlns:xlink="http://www.w3.org/1999/xlink" x="0px" y="0px"
	 viewBox="0 0 300 293" style="enable-background:new 0 0 300 293;" xml:space="preserve">
<style type="text/css">
	.st0{fill:#FFFFFF;}
	.st1{fill:#18000A;}
</style>
<path class="st0" d="M53.62-0.01h193.75c29.38,0,53.12,23.75,53.12,53.12v186.25c0,29.38-23.75,53.13-53.12,53.13H53.62
	c-29.38,0-53.12-23.75-53.12-53.13V53.11C0.5,23.74,24.25-0.01,53.62-0.01z"/>
<path class="st1" d="M266.05,129.49c-6.33-43.78-37.46-80.55-79.71-94.18c-7.45-2.42-15.38-4.08-24.27-5.08
	c-2.19-0.23-17.25-0.48-19.14-0.3c-0.5,0.05-2.1,0.21-3.53,0.32c-33.11,2.99-64.12,20.85-83.77,48.31
	c-10.94,15.27-17.93,32.59-20.58,50.93c-0.93,6.4-1.05,8.27-1.05,16.98c0,8.68,0.11,10.57,1.05,16.98
	c6.36,43.75,37.49,80.53,79.73,94.16c7.57,2.44,15.54,4.1,24.61,5.1c3.53,0.39,18.8,0.39,22.33,0c15.66-1.73,28.92-5.61,42-12.28
	c2.01-1.03,2.39-1.3,2.12-1.53c-0.18-0.14-8.73-11.6-18.98-25.45l-18.64-25.18l-23.36-34.57c-12.85-19-23.43-34.55-23.52-34.55
	c-0.09-0.02-0.18,15.34-0.23,34.09c-0.07,32.84-0.09,34.16-0.5,34.93c-0.59,1.12-1.05,1.57-2.01,2.07
	c-0.73,0.36-1.37,0.43-4.81,0.43h-3.94l-1.05-0.66c-0.68-0.43-1.18-1-1.53-1.66l-0.48-1.03l0.05-45.69l0.07-45.71l0.71-0.89
	c0.36-0.48,1.14-1.09,1.69-1.39c0.93-0.46,1.3-0.5,5.24-0.5c4.65,0,5.42,0.18,6.63,1.5c0.34,0.36,12.99,19.42,28.12,42.36
	c15.13,22.95,35.82,54.28,45.99,69.66l18.46,27.96l0.93-0.62c8.27-5.38,17.02-13.03,23.95-21.01
	c14.74-16.93,24.25-37.58,27.44-59.59c0.93-6.4,1.05-8.29,1.05-16.98C267.12,137.76,267.01,135.9,266.05,129.49z M193.13,144.94
	l-0.07,40.97l-7.22-11.07l-7.25-11.1v-29.76c0-19.26,0.09-30.08,0.23-30.6c0.36-1.28,1.16-2.28,2.26-2.87
	c0.93-0.48,1.28-0.52,4.85-0.52c3.37,0,3.97,0.05,4.72,0.46c1.09,0.55,1.98,1.6,2.3,2.69C193.13,103.72,193.18,116.39,193.13,144.94
	z"/>
</svg>
