<?xml version="1.0" encoding="utf-8"?>
<!-- Generator: Adobe Illustrator 27.1.0, SVG Export Plug-In . SVG Version: 6.00 Build 0)  -->
<svg version="1.1" id="Layer_1" xmlns="http://www.w3.org/2000/svg" xmlns:xlink="http://www.w3.org/1999/xlink" x="0px" y="0px"
	 viewBox="0 0 300 293" style="enable-background:new 0 0 300 293;" xml:space="preserve">
<style type="text/css">
	.st0{fill:#FFFFFF;}
	.st1{fill:#18000A;}
</style>
<path class="st0" d="M53.6,0h193.8c29.4,0,53.1,23.8,53.1,53.1v186.2c0,29.4-23.8,53.1-53.1,53.1H53.6c-29.4,0-53.1-23.8-53.1-53.1
	V53.1C0.5,23.7,24.2,0,53.6,0z"/>
<path class="st1" d="M150.5,256.9c-3,0-5.9-0.8-8.5-2.2l-27-16c-4.1-2.2-2-3-0.8-3.4c5.5-1.8,6.5-2.2,12.2-5.5
	c0.6-0.4,1.4-0.2,2,0.2l20.7,12.4c0.8,0.4,1.8,0.4,2.4,0l80.9-46.8c0.8-0.4,1.2-1.2,1.2-2.2V99.7c0-1-0.4-1.8-1.2-2.2l-80.9-46.6
	c-0.8-0.4-1.8-0.4-2.4,0L68.2,97.5c-0.8,0.4-1.2,1.4-1.2,2.2v93.5c0,0.8,0.4,1.8,1.2,2.2l22.1,12.8c12,6.1,19.5-1,19.5-8.1v-92.3
	c0-1.2,1-2.4,2.4-2.4h10.3c1.2,0,2.4,1,2.4,2.4v92.3c0,16-8.7,25.3-23.9,25.3c-4.7,0-8.3,0-18.7-5.1l-21.3-12.2
	c-5.3-3-8.5-8.7-8.5-14.8V99.9c0-6.1,3.2-11.8,8.5-14.8L142,38.3c5.1-2.8,12-2.8,17,0l80.9,46.8c5.3,3,8.5,8.7,8.5,14.8v93.5
	c0,6.1-3.2,11.8-8.5,14.8L159,255C156.4,256.3,153.3,256.9,150.5,256.9L150.5,256.9z M175.4,192.6c-35.5,0-42.8-16.2-42.8-30
	c0-1.2,1-2.4,2.4-2.4h10.5c1.2,0,2.2,0.8,2.2,2c1.6,10.7,6.3,16,27.8,16c17,0,24.3-3.9,24.3-13c0-5.3-2-9.1-28.6-11.8
	c-22.1-2.2-35.9-7.1-35.9-24.7c0-16.4,13.8-26.2,36.9-26.2c26,0,38.7,8.9,40.4,28.4c0,0.6-0.2,1.2-0.6,1.8c-0.4,0.4-1,0.8-1.6,0.8
	H200c-1,0-2-0.8-2.2-1.8c-2.4-11.2-8.7-14.8-25.3-14.8c-18.7,0-20.9,6.5-20.9,11.4c0,5.9,2.6,7.7,27.8,10.9
	c24.9,3.2,36.7,7.9,36.7,25.3C215.8,182.4,201.2,192.6,175.4,192.6z"/>
</svg>
