<?xml version="1.0" encoding="utf-8"?>
<!-- Generator: Adobe Illustrator 27.1.0, SVG Export Plug-In . SVG Version: 6.00 Build 0)  -->
<svg version="1.1" id="Layer_1" xmlns="http://www.w3.org/2000/svg" xmlns:xlink="http://www.w3.org/1999/xlink" x="0px" y="0px"
	 viewBox="0 0 300 293" style="enable-background:new 0 0 300 293;" xml:space="preserve">
<style type="text/css">
	.st0{fill:#FFFFFF;}
	.st1{fill:#18000A;}
</style>
<path class="st0" d="M53.12,0.29h193.75c29.38,0,53.12,23.75,53.12,53.12v186.25c0,29.38-23.75,53.12-53.12,53.12H53.12
	C23.75,292.79,0,269.04,0,239.67V53.42C0,24.04,23.75,0.29,53.12,0.29z"/>
<g>
	<path class="st1" d="M40.3,228.1V65.1c0-1.11,0.47-1.74,1.58-1.74c2.69,0,5.22,0,8.86-0.16c3.8-0.16,7.75-0.16,12.03-0.32
		s8.86-0.16,13.77-0.32s9.65-0.16,14.4-0.16c12.98,0,23.74,1.58,32.6,4.91c7.91,2.69,15.19,7.12,21.2,12.98
		c5.06,5.06,9.02,11.24,11.55,18.04c2.37,6.65,3.64,13.45,3.64,20.57c0,13.61-3.16,24.84-9.49,33.71s-15.19,15.51-25.48,19.31
		c-10.76,3.96-22.63,5.38-35.61,5.38c-3.8,0-6.33,0-7.91-0.16c-1.58-0.16-3.8-0.16-6.8-0.16v50.8c0.16,1.11-0.63,2.06-1.74,2.22
		H42.2c-1.27,0-1.9-0.63-1.9-2.06V228.1z M74.8,94.06v53.17c2.22,0.16,4.27,0.32,6.17,0.32h8.39c6.17,0,12.34-0.95,18.2-2.85
		c5.06-1.42,9.49-4.43,12.98-8.39c3.32-3.96,4.91-9.34,4.91-16.3c0.16-4.91-1.11-9.81-3.64-14.08c-2.69-4.11-6.49-7.28-11.08-9.02
		c-5.86-2.37-12.18-3.32-18.67-3.16c-4.11,0-7.75,0-10.76,0.16C78.13,93.74,75.91,93.9,74.8,94.06L74.8,94.06z M182.73,103.4h27.69
		c1.58,0,2.85,1.11,3.32,2.53c0.47,1.27,0.79,2.53,0.95,3.96c0.32,1.58,0.63,3.32,0.79,4.91c0.16,1.74,0.32,3.64,0.32,5.7
		c4.75-5.54,10.44-10.13,16.93-13.61c7.28-4.11,15.67-6.17,24.05-6.17c1.11-0.16,2.06,0.63,2.22,1.74v31.49
		c0,1.27-0.79,1.74-2.53,1.74c-5.7-0.16-11.55,0.32-17.09,1.58c-4.59,0.95-9.02,2.37-13.29,4.27c-3.01,1.42-5.86,3.32-8.07,5.86
		v80.71c0,1.58-0.63,2.22-2.06,2.22h-31.17c-1.27,0.16-2.37-0.63-2.53-1.9v-88.3c0-3.8,0-7.75-0.16-11.87
		c-0.16-4.11-0.16-8.23-0.32-12.34c0-3.64-0.32-7.12-0.63-10.76c-0.16-0.79,0.32-1.58,1.11-1.74
		C182.25,103.24,182.57,103.24,182.73,103.4L182.73,103.4z"/>
</g>
</svg>
