<?xml version="1.0" encoding="utf-8"?>
<!-- Generator: Adobe Illustrator 27.1.0, SVG Export Plug-In . SVG Version: 6.00 Build 0)  -->
<svg version="1.1" id="Layer_1" xmlns="http://www.w3.org/2000/svg" xmlns:xlink="http://www.w3.org/1999/xlink" x="0px" y="0px"
	 viewBox="0 0 300 293" style="enable-background:new 0 0 300 293;" xml:space="preserve">
<style type="text/css">
	.st0{fill:#FFFFFF;}
	.st1{fill:#18000A;}
</style>
<path class="st0" d="M53.12,0.29h193.75c29.38,0,53.12,23.75,53.12,53.12v186.25c0,29.38-23.75,53.12-53.12,53.12H53.12
	C23.75,292.79,0,269.04,0,239.67V53.42C0,24.04,23.75,0.29,53.12,0.29z"/>
<g>
	<path class="st1" d="M44.91,222.06V65.24c0-1.07,0.46-1.68,1.52-1.68c2.59,0,5.03,0,8.53-0.15c3.66-0.15,7.47-0.15,11.58-0.3
		s8.53-0.15,13.26-0.3s9.3-0.15,13.87-0.15c12.5,0,22.86,1.52,31.4,4.72c7.62,2.59,14.63,6.86,20.42,12.5
		c4.88,4.88,8.69,10.82,11.13,17.37c2.29,6.4,3.51,12.95,3.51,19.81c0,13.11-3.05,23.93-9.14,32.46s-14.63,14.94-24.54,18.59
		c-10.36,3.81-21.79,5.18-34.29,5.18c-3.66,0-6.1,0-7.62-0.15c-1.52-0.15-3.66-0.15-6.55-0.15v48.92c0.15,1.07-0.61,1.98-1.68,2.13
		H46.74C45.52,224.04,44.91,223.43,44.91,222.06L44.91,222.06z M78.14,92.97v51.21c2.13,0.15,4.11,0.3,5.94,0.3h8.08
		c5.94,0,11.89-0.91,17.53-2.74c4.88-1.37,9.14-4.27,12.5-8.08c3.2-3.81,4.72-8.99,4.72-15.7c0.15-4.72-1.07-9.45-3.51-13.56
		c-2.59-3.96-6.25-7.01-10.67-8.69c-5.64-2.29-11.74-3.2-17.98-3.05c-3.96,0-7.47,0-10.36,0.15C81.34,92.67,79.21,92.82,78.14,92.97
		L78.14,92.97z M255.23,134.89c-4.57-2.44-9.45-4.11-14.63-5.18c-5.64-1.22-11.28-1.98-17.07-1.98c-3.05-0.15-6.25,0.3-9.14,1.07
		c-1.98,0.46-3.66,1.52-4.72,3.05c-0.76,1.22-1.22,2.74-1.22,4.11c0,1.37,0.61,2.74,1.52,3.96c1.37,1.68,3.2,3.05,5.18,4.11
		c3.51,1.83,7.16,3.51,10.82,5.03c8.23,2.74,16.15,6.55,23.47,11.13c5.03,3.2,9.14,7.47,12.04,12.65c2.44,4.88,3.66,10.21,3.51,15.7
		c0.15,7.16-1.98,14.33-5.94,20.27c-4.27,6.1-10.21,10.82-17.07,13.56c-7.47,3.2-16.61,4.88-27.59,4.88
		c-7.01,0-13.87-0.61-20.73-1.98c-5.33-0.91-10.67-2.59-15.55-4.88c-1.07-0.61-1.83-1.68-1.68-2.9v-26.52
		c0-0.46,0.15-1.07,0.61-1.37c0.46-0.3,0.91-0.15,1.37,0.15c5.94,3.51,12.19,5.94,18.9,7.47c5.79,1.52,11.89,2.29,17.98,2.29
		c5.79,0,9.91-0.76,12.65-2.13c2.44-1.07,4.11-3.66,4.11-6.4c0-2.13-1.22-4.11-3.66-6.1s-7.47-4.27-14.94-7.16
		c-7.77-2.74-14.94-6.4-21.64-10.97c-4.72-3.35-8.69-7.77-11.58-12.95c-2.44-4.88-3.66-10.21-3.51-15.55
		c0-6.55,1.83-12.8,5.18-18.44c3.81-6.1,9.45-10.97,16-14.02c7.16-3.66,16.15-5.33,26.98-5.33c6.25,0,12.65,0.46,18.9,1.37
		c4.57,0.61,8.99,1.83,13.11,3.51c0.61,0.15,1.22,0.76,1.52,1.37c0.15,0.61,0.3,1.22,0.3,1.83v24.84c0,0.61-0.3,1.22-0.76,1.52
		C256.6,135.19,255.84,135.19,255.23,134.89L255.23,134.89z"/>
</g>
</svg>
