<?xml version="1.0" encoding="utf-8"?>
<!-- Generator: Adobe Illustrator 27.1.0, SVG Export Plug-In . SVG Version: 6.00 Build 0)  -->
<svg version="1.1" id="Layer_1" xmlns="http://www.w3.org/2000/svg" xmlns:xlink="http://www.w3.org/1999/xlink" x="0px" y="0px"
	 viewBox="0 0 300 293" style="enable-background:new 0 0 300 293;" xml:space="preserve">
<style type="text/css">
	.st0{fill:#FFFFFF;}
	.st1{fill:#18000A;}
</style>
<path class="st0" d="M53.62-0.01h193.75c29.38,0,53.12,23.75,53.12,53.12v186.25c0,29.38-23.75,53.13-53.12,53.13H53.62
	c-29.38,0-53.12-23.75-53.12-53.13V53.11C0.5,23.74,24.25-0.01,53.62-0.01z"/>
<g>
	<path class="st1" d="M274,146.02c0-16.46-20.62-32.08-52.25-41.76c7.3-32.23,4.06-57.87-10.23-66.08
		c-3.3-1.93-7.15-2.83-11.35-2.83v11.3c2.33,0,4.2,0.45,5.78,1.31c6.89,3.95,9.88,19,7.55,38.36c-0.56,4.76-1.47,9.78-2.58,14.9
		c-9.94-2.44-20.78-4.31-32.18-5.52c-6.84-9.37-13.94-17.89-21.08-25.34c16.52-15.35,32.02-23.76,42.57-23.76V35.3
		c-13.94,0-32.18,9.94-50.63,27.16c-18.45-17.13-36.69-26.96-50.63-26.96v11.3c10.49,0,26.05,8.36,42.57,23.61
		c-7.09,7.44-14.19,15.91-20.93,25.29c-11.46,1.21-22.3,3.09-32.23,5.58c-1.17-5.07-2.03-9.98-2.64-14.7
		c-2.38-19.35,0.56-34.41,7.4-38.41c1.52-0.91,3.5-1.31,5.82-1.31v-11.3c-4.26,0-8.11,0.91-11.46,2.83
		c-14.24,8.2-17.43,33.8-10.08,65.93c-31.51,9.72-52.03,25.28-52.03,41.7c0,16.46,20.62,32.08,52.25,41.76
		c-7.3,32.23-4.06,57.87,10.23,66.08c3.3,1.93,7.15,2.83,11.4,2.83c13.94,0,32.18-9.94,50.63-27.16
		c18.45,17.13,36.69,26.96,50.63,26.96c4.26,0,8.11-0.91,11.46-2.83c14.24-8.2,17.43-33.8,10.08-65.93
		C253.48,178.06,274,162.44,274,146.02L274,146.02z M208.02,112.22c-1.87,6.54-4.2,13.28-6.84,20.01
		c-2.07-4.06-4.26-8.11-6.64-12.16c-2.33-4.06-4.82-8.01-7.3-11.85C194.44,109.29,201.39,110.6,208.02,112.22L208.02,112.22z
		 M184.81,166.19c-3.95,6.84-8.01,13.33-12.22,19.35c-7.55,0.66-15.21,1.01-22.9,1.01c-7.65,0-15.31-0.35-22.8-0.96
		c-4.2-6.03-8.31-12.46-12.26-19.25c-3.85-6.64-7.34-13.38-10.54-20.17c3.14-6.79,6.69-13.59,10.49-20.22
		c3.95-6.84,8.01-13.33,12.22-19.35c7.55-0.66,15.21-1.01,22.9-1.01c7.65,0,15.31,0.35,22.8,0.96c4.2,6.03,8.31,12.46,12.26,19.25
		c3.85,6.64,7.34,13.38,10.54,20.17C192.11,152.76,188.62,159.55,184.81,166.19L184.81,166.19z M201.19,159.61
		c2.73,6.79,5.07,13.59,6.99,20.17c-6.64,1.62-13.63,2.99-20.87,4.06c2.48-3.9,4.96-7.91,7.3-12.01
		C196.92,167.77,199.1,163.67,201.19,159.61L201.19,159.61z M149.8,213.67c-4.71-4.86-9.43-10.29-14.08-16.22
		c4.56,0.2,9.22,0.35,13.94,0.35c4.76,0,9.47-0.1,14.08-0.35C159.17,203.39,154.45,208.81,149.8,213.67z M112.1,183.82
		c-7.2-1.07-14.14-2.38-20.78-4c1.87-6.54,4.2-13.28,6.84-20.01c2.07,4.06,4.26,8.11,6.64,12.16
		C107.18,176.02,109.62,179.98,112.1,183.82z M149.55,78.37c4.71,4.86,9.43,10.29,14.08,16.22c-4.56-0.2-9.22-0.35-13.94-0.35
		c-4.76,0-9.47,0.1-14.08,0.35C140.17,88.66,144.88,83.24,149.55,78.37z M112.04,108.22c-2.48,3.9-4.96,7.91-7.3,12.01
		c-2.33,4.06-4.51,8.11-6.58,12.16c-2.73-6.79-5.07-13.59-6.99-20.17C97.81,110.66,104.8,109.29,112.04,108.22L112.04,108.22z
		 M66.18,171.67c-17.94-7.65-29.54-17.69-29.54-25.64c0-7.95,11.6-18.04,29.54-25.64c4.36-1.87,9.12-3.55,14.04-5.12
		c2.89,9.94,6.69,20.27,11.4,30.86c-4.66,10.54-8.41,20.83-11.25,30.71C75.35,175.27,70.59,173.55,66.18,171.67L66.18,171.67z
		 M93.45,244.08c-6.89-3.95-9.88-19-7.55-38.36c0.56-4.76,1.47-9.78,2.58-14.9c9.94,2.44,20.78,4.31,32.18,5.52
		c6.84,9.37,13.94,17.89,21.08,25.34c-16.52,15.35-32.02,23.76-42.57,23.76C96.89,245.4,94.97,244.94,93.45,244.08L93.45,244.08z
		 M213.65,205.47c2.38,19.35-0.56,34.41-7.4,38.41c-1.52,0.91-3.5,1.31-5.82,1.31c-10.49,0-26.05-8.36-42.57-23.61
		c7.09-7.44,14.19-15.91,20.93-25.29c11.46-1.21,22.3-3.09,32.23-5.57C212.18,195.84,213.09,200.75,213.65,205.47z M233.16,171.67
		c-4.36,1.87-9.12,3.55-14.04,5.12c-2.89-9.94-6.69-20.27-11.4-30.86c4.66-10.54,8.41-20.83,11.25-30.71
		c5.02,1.58,9.78,3.3,14.24,5.17c17.94,7.65,29.54,17.69,29.54,25.64C262.7,153.98,251.1,164.06,233.16,171.67L233.16,171.67z"/>
	<circle class="st1" cx="149.65" cy="146.02" r="23.16"/>
</g>
</svg>
