<?xml version="1.0" encoding="utf-8"?>
<!-- Generator: Adobe Illustrator 27.1.0, SVG Export Plug-In . SVG Version: 6.00 Build 0)  -->
<svg version="1.1" id="Layer_1" xmlns="http://www.w3.org/2000/svg" xmlns:xlink="http://www.w3.org/1999/xlink" x="0px" y="0px"
	 viewBox="0 0 300 293" style="enable-background:new 0 0 300 293;" xml:space="preserve">
<style type="text/css">
	.st0{fill:#FFFFFF;}
	.st1{enable-background:new    ;}
	.st2{fill:#18000A;}
</style>
<path class="st0" d="M53.6,0h193.8c29.4,0,53.1,23.8,53.1,53.1v186.2c0,29.4-23.8,53.1-53.1,53.1H53.6c-29.4,0-53.1-23.8-53.1-53.1
	V53.1C0.5,23.7,24.2,0,53.6,0z"/>
<g>
	<g class="st1">
		<g>
			<path class="st2" d="M268.9,173.2c0,23.9-19.5,43.4-43.4,43.4H67.5c-23.9,0-43.4-19.4-43.4-43.4c0-22.2,16.6-40.7,38.6-43.1
				c2.2-0.2,4-1.7,4.8-3.8c7.9-23.4,29.9-39.2,54.6-39.2c4.4,0,9,0.6,13.7,1.6c2.1,0.5,4.3-0.2,5.7-1.9c11-13,27-20.4,44-20.4
				c31.8,0,57.7,25.9,57.7,57.7c0,1.7-0.1,3.5-0.3,5.2c-0.2,2.3,1,4.5,3,5.6C260.1,142.5,268.9,157.2,268.9,173.2z"/>
		</g>
	</g>
	<g>
		<path class="st0" d="M62.9,169.4c2.7,1.4,4.1,4.2,4.1,8.3v8.1c0,1.6,0.3,2.7,1,3.3c0.7,0.6,1.6,1,2.8,1.2c0.1,0.3,0.1,0.6,0.1,0.9
			c0,0.3,0,0.6,0,0.8c0,1.3-0.4,2.3-1.1,3c-0.7,0.6-1.8,0.9-3.1,0.9c-2.2,0-4-0.7-5.4-2.2c-1.4-1.5-2.1-3.7-2.1-6.6v-7.6
			c0-2.1-0.4-3.8-1.2-4.9c-0.8-1.1-2-1.9-3.6-2.2c-0.1-0.4-0.2-0.9-0.3-1.4c-0.1-0.5-0.1-1.1-0.1-1.5c0-0.5,0-1.1,0.1-1.6
			c0.1-0.5,0.2-1,0.3-1.4c1.6-0.4,2.8-1.1,3.6-2.2c0.8-1.1,1.2-2.8,1.2-4.9v-7.2c0-3,0.7-5.1,2.1-6.6c1.4-1.4,3.2-2.1,5.4-2.1
			c1.3,0,2.3,0.3,3,0.9c0.7,0.6,1,1.6,1,3.1c0,0.3,0,0.5,0,0.8c0,0.3,0,0.6-0.1,0.9c-1.2,0.1-2.1,0.5-2.8,1.2c-0.7,0.6-1,1.8-1,3.3
			v7.7C67,165.3,65.6,168,62.9,169.4z"/>
		<g>
			<path class="st0" d="M86.7,189.8c-0.4,0.1-1,0.2-1.7,0.3c-0.7,0.1-1.5,0.2-2.4,0.2c-1.7,0-2.9-0.3-3.6-0.9c-0.7-0.6-1-1.7-1-3.2
				v-33.7c0-0.8,0.2-1.5,0.7-1.9c0.4-0.4,1.1-0.8,1.9-1.1c1.4-0.5,3.1-0.8,5.1-1c1.9-0.2,3.9-0.3,6-0.3c5.9,0,10.3,1.2,13.3,3.7
				c3,2.4,4.4,5.8,4.4,10.1c0,2.8-0.7,5.3-2.2,7.3c-1.5,2.1-3.5,3.7-6.1,4.8c2,2.5,3.9,5,5.7,7.3c1.8,2.3,3.2,4.1,4.1,5.4
				c-0.4,1.2-1,2.1-1.9,2.7c-0.9,0.6-1.9,1-3,1c-1.4,0-2.4-0.3-3.2-0.9c-0.7-0.6-1.5-1.5-2.2-2.5l-7.6-11.3h-6.2V189.8z M92,168.8
				c2.5,0,4.6-0.6,6.1-1.7c1.5-1.1,2.3-2.8,2.3-5.1c0-4.5-3-6.8-9.1-6.8c-0.9,0-1.8,0-2.6,0.1c-0.8,0.1-1.6,0.2-2.3,0.3v13.1H92z"/>
			<path class="st0" d="M119.4,188.8c-0.8-0.8-1.2-2-1.2-3.4v-31.5c0-1.4,0.4-2.6,1.2-3.4c0.8-0.8,2-1.2,3.4-1.2H145
				c0.2,0.4,0.4,0.8,0.6,1.4c0.2,0.6,0.3,1.2,0.3,1.9c0,1.2-0.3,2.1-0.8,2.7c-0.5,0.6-1.3,0.9-2.2,0.9h-16.2v9.5H143
				c0.2,0.4,0.4,0.8,0.6,1.4c0.2,0.6,0.3,1.2,0.3,1.9c0,2.4-1,3.6-3.1,3.6h-14.2V183h18.7c0.2,0.4,0.4,0.8,0.6,1.4
				c0.2,0.6,0.3,1.3,0.3,2c0,2.4-1,3.6-3.1,3.6h-20.3C121.3,190,120.2,189.6,119.4,188.8z"/>
			<path class="st0" d="M166.3,183.8c2.6,0,4.5-0.5,5.7-1.5c1.2-1,1.8-2.3,1.8-3.8c0-1.4-0.5-2.5-1.4-3.3c-0.9-0.8-2.4-1.5-4.3-2.1
				l-4.3-1.3c-1.7-0.5-3.2-1.1-4.6-1.8c-1.4-0.7-2.6-1.5-3.6-2.4c-1-0.9-1.7-2-2.3-3.2c-0.5-1.2-0.8-2.7-0.8-4.4
				c0-3.6,1.4-6.5,4.1-8.6c2.7-2.1,6.5-3.2,11.2-3.2c1.9,0,3.6,0.1,5.2,0.4c1.6,0.3,3,0.7,4.1,1.2c1.2,0.5,2.1,1.2,2.7,1.9
				c0.6,0.8,1,1.6,1,2.5c0,0.9-0.2,1.7-0.6,2.3c-0.4,0.6-1,1.2-1.6,1.6c-1.1-0.8-2.5-1.4-4.3-2c-1.8-0.6-3.7-0.8-5.8-0.8
				c-2.3,0-4.1,0.4-5.3,1.2c-1.2,0.8-1.8,2-1.8,3.4c0,1.2,0.4,2.1,1.2,2.7c0.8,0.6,2.1,1.2,3.9,1.8l3.8,1.2c3.9,1.2,6.9,2.8,9.1,4.8
				c2.1,2,3.2,4.7,3.2,8.2c0,1.8-0.4,3.5-1.1,5c-0.7,1.5-1.8,2.8-3.1,3.9c-1.4,1.1-3.1,1.9-5.1,2.5c-2,0.6-4.4,0.9-6.9,0.9
				c-2.1,0-3.9-0.2-5.7-0.5c-1.7-0.4-3.2-0.8-4.5-1.4c-1.3-0.6-2.2-1.3-2.9-2.1c-0.7-0.8-1-1.7-1-2.7c0-1,0.3-1.9,0.9-2.6
				c0.6-0.7,1.3-1.3,2.1-1.6c1.1,1,2.6,1.9,4.4,2.7C161.7,183.4,163.8,183.8,166.3,183.8z"/>
			<path class="st0" d="M218.8,150.6c0.2,0.6,0.3,1.3,0.3,2c0,1.2-0.3,2.1-0.8,2.8c-0.6,0.6-1.3,0.9-2.3,0.9h-9.3v33.5
				c-0.4,0.1-0.9,0.2-1.7,0.3c-0.8,0.1-1.5,0.2-2.3,0.2c-1.7,0-2.9-0.3-3.6-0.9c-0.7-0.6-1.1-1.7-1.1-3.2v-30h-11.3
				c-0.2-0.4-0.4-0.9-0.6-1.5c-0.2-0.6-0.3-1.2-0.3-1.9c0-1.3,0.3-2.2,0.8-2.8c0.6-0.6,1.3-0.9,2.3-0.9h29.2
				C218.4,149.5,218.6,150,218.8,150.6z"/>
		</g>
		<path class="st0" d="M230.8,169.4c-2.7-1.3-4.1-4.1-4.1-8.3v-7.7c0-1.6-0.3-2.7-1-3.3c-0.7-0.6-1.6-1-2.8-1.2
			c-0.1-0.3-0.1-0.6-0.1-0.9c0-0.3,0-0.5,0-0.8c0-1.4,0.3-2.4,1-3.1c0.7-0.6,1.7-0.9,3-0.9c2.2,0,4,0.7,5.4,2.1
			c1.4,1.4,2.1,3.6,2.1,6.6v7.2c0,2.1,0.4,3.8,1.2,4.9c0.8,1.1,2,1.9,3.6,2.2c0.1,0.4,0.2,0.9,0.3,1.4c0.1,0.5,0.1,1.1,0.1,1.6
			c0,0.5,0,1-0.1,1.5c-0.1,0.5-0.2,1-0.3,1.4c-1.6,0.4-2.8,1.1-3.6,2.2c-0.8,1.1-1.2,2.8-1.2,4.9v7.6c0,3-0.7,5.2-2.1,6.6
			c-1.4,1.5-3.2,2.2-5.4,2.2c-1.3,0-2.3-0.3-3.1-0.9c-0.7-0.6-1.1-1.6-1.1-3c0-0.3,0-0.5,0-0.8c0-0.3,0-0.6,0.1-0.9
			c1.2-0.1,2.1-0.5,2.8-1.2c0.7-0.6,1-1.8,1-3.3v-8.1C226.8,173.5,228.1,170.8,230.8,169.4z"/>
	</g>
</g>
</svg>
