<?xml version="1.0" encoding="utf-8"?>
<!-- Generator: Adobe Illustrator 27.1.0, SVG Export Plug-In . SVG Version: 6.00 Build 0)  -->
<svg version="1.1" id="Layer_1" xmlns="http://www.w3.org/2000/svg" xmlns:xlink="http://www.w3.org/1999/xlink" x="0px" y="0px"
	 viewBox="0 0 300 293" style="enable-background:new 0 0 300 293;" xml:space="preserve">
<style type="text/css">
	.st0{fill:#FFFFFF;}
	.st1{fill:#18000A;}
</style>
<path class="st0" d="M53.6,0h193.8c29.4,0,53.1,23.8,53.1,53.1v186.2c0,29.4-23.8,53.1-53.1,53.1H53.6c-29.4,0-53.1-23.8-53.1-53.1
	V53.1C0.5,23.7,24.2,0,53.6,0z"/>
<path class="st1" d="M150,80.9c-29.2,0-47.4,14.6-54.7,43.8c10.9-14.6,23.7-20.1,38.3-16.4c8.3,2.1,14.3,8.1,20.9,14.8
	c10.7,10.9,23.1,23.5,50.3,23.5c29.2,0,47.4-14.6,54.7-43.8c-10.9,14.6-23.7,20.1-38.3,16.4c-8.3-2.1-14.3-8.1-20.9-14.8
	C189.5,93.5,177.1,80.9,150,80.9z M95.3,146.5c-29.2,0-47.4,14.6-54.7,43.8c10.9-14.6,23.7-20.1,38.3-16.4
	c8.3,2.1,14.3,8.1,20.9,14.8c10.7,10.9,23.1,23.5,50.3,23.5c29.2,0,47.4-14.6,54.7-43.8c-10.9,14.6-23.7,20.1-38.3,16.4
	c-8.3-2.1-14.3-8.1-20.9-14.8C134.8,159.1,122.4,146.5,95.3,146.5z"/>
</svg>
