<?xml version="1.0" encoding="utf-8"?>
<!-- Generator: Adobe Illustrator 27.1.0, SVG Export Plug-In . SVG Version: 6.00 Build 0)  -->
<svg version="1.1" id="Layer_1" xmlns="http://www.w3.org/2000/svg" xmlns:xlink="http://www.w3.org/1999/xlink" x="0px" y="0px"
	 viewBox="0 0 300 293" style="enable-background:new 0 0 300 293;" xml:space="preserve">
<style type="text/css">
	.st0{fill:#FFFFFF;}
	.st1{fill:#18000A;}
</style>
<path class="st0" d="M53.62-0.01h193.75c29.38,0,53.12,23.75,53.12,53.12v186.25c0,29.38-23.75,53.13-53.12,53.13H53.62
	c-29.38,0-53.12-23.75-53.12-53.13V53.11C0.5,23.74,24.25-0.01,53.62-0.01z"/>
<path class="st1" d="M271.72,61.42c0.58-6.23-4.35-11.07-10.63-10.44c-29.45-0.47-58.89,0-88.37-0.16V28.97h-16.47
	c-42.23,7.46-84.48,14.59-126.71,21.91c0,63.71-0.03,127.44,0,191.17c42.01,7.29,84.04,14.26,125.97,21.85h17.21v-21.85
	c27.57,0,55.12-0.05,82.69,0.08c4.68-0.22,9.89,0.14,13.91-2.7c3.22-4.89,2.4-11.01,2.67-16.53
	C271.61,169.08,272.19,115.24,271.72,61.42z M121.43,183.56c-4.6,2.38-11.49-0.11-16.94,0.27c-3.66-18.08-7.93-36.06-11.21-54.23
	c-3.22,17.65-7.41,35.13-11.1,52.67c-5.29-0.27-10.6-0.6-15.92-0.96c-4.57-24.04-9.94-47.92-14.21-72.01
	c4.71-0.22,9.45-0.41,14.16-0.58c2.84,17.4,6.06,34.72,8.54,52.15c3.89-17.86,7.85-35.73,11.71-53.6c5.23-0.3,10.47-0.52,15.7-0.79
	c3.66,18.44,7.41,36.85,11.38,55.21c3.11-18.96,6.56-37.86,9.89-56.79c5.51-0.19,11.02-0.49,16.5-0.82
	C133.69,130.56,128.24,157.25,121.43,183.56z M263.62,233.85h-90.9V212h71.62v-10.93h-71.62v-13.66h71.62v-10.93h-71.62v-13.66
	h71.62V151.9h-71.62v-13.66h71.62v-10.93h-71.62v-13.66h71.62v-10.93h-71.62V89.07h71.62V78.14h-71.62V59.02h90.9V233.85z"/>
</svg>
