<?xml version="1.0" encoding="utf-8"?>
<!-- Generator: Adobe Illustrator 27.1.0, SVG Export Plug-In . SVG Version: 6.00 Build 0)  -->
<svg version="1.1" id="Layer_1" xmlns="http://www.w3.org/2000/svg" xmlns:xlink="http://www.w3.org/1999/xlink" x="0px" y="0px"
	 viewBox="0 0 300 293" style="enable-background:new 0 0 300 293;" xml:space="preserve">
<style type="text/css">
	.st0{fill:#FFFFFF;}
	.st1{fill:#18000A;}
</style>
<path class="st0" d="M53.12,0.29h193.75c29.38,0,53.12,23.75,53.12,53.12v186.25c0,29.38-23.75,53.12-53.12,53.12H53.12
	C23.75,292.79,0,269.04,0,239.67V53.42C0,24.04,23.75,0.29,53.12,0.29z"/>
<g>
	<path class="st1" d="M158.04,85.22l-38.83,64.06l41.42,67.95c0.26,0.52,0.39,1.04,0.26,1.55c-0.13,0.52-0.65,0.13-1.42,0.26h-29.64
		c-2.07,0-3.49-0.13-4.4-1.42c-2.72-5.44-5.57-10.74-8.28-16.18c-2.72-5.31-5.69-10.74-8.8-16.31c-3.11-5.57-6.21-11.13-9.32-16.82
		h-0.26c-2.72,5.57-5.69,11.13-8.67,16.7s-5.95,11.13-8.8,16.57c-2.98,5.44-5.95,11-8.93,16.31c-0.52,1.29-1.55,1.42-2.98,1.42
		H40.91c-0.52,0-0.91,0.26-0.91-0.39c-0.13-0.52,0-1.04,0.26-1.42l40.25-66.01L41.3,85.09c-0.39-0.52-0.52-1.04-0.26-1.29
		c0.26-0.39,0.78-0.52,1.29-0.52h29.38c0.65,0,1.29,0.13,1.81,0.26c0.52,0.26,0.91,0.65,1.29,1.16c2.46,5.57,5.31,11.13,8.28,16.7
		c3.11,5.57,6.08,11,9.32,16.44c3.11,5.44,5.95,10.87,8.67,16.44h0.26c2.72-5.69,5.57-11.26,8.41-16.7
		c2.85-5.44,5.82-10.87,8.8-16.31s5.82-11,8.67-16.31c0.13-0.52,0.39-1.04,0.78-1.29c0.52-0.26,1.04-0.39,1.68-0.26h27.31
		c0.65-0.13,1.29,0.26,1.42,0.91C158.56,84.44,158.3,84.96,158.04,85.22L158.04,85.22z M217.83,221.76
		c-9.58,0.13-19.15-1.81-27.83-5.82c-8.15-3.75-14.88-9.97-19.54-17.6c-4.79-7.89-7.12-17.73-7.12-29.51
		c-0.13-9.58,2.33-19.03,7.12-27.31c4.92-8.41,12.04-15.4,20.58-20.06c9.06-5.05,19.93-7.51,32.74-7.51c0.65,0,1.55,0,2.72,0.13
		c1.16,0.13,2.46,0.13,4.01,0.26v-40.9c0-0.91,0.39-1.42,1.29-1.42h26.27c0.65-0.13,1.16,0.39,1.29,0.91V196.4
		c0,2.33,0.13,4.92,0.26,7.77c0.26,2.72,0.39,5.31,0.52,7.51c0,0.91-0.39,1.68-1.29,2.07c-6.73,2.85-13.85,4.92-21.1,6.21
		C231.16,221.12,224.56,221.76,217.83,221.76L217.83,221.76z M230.52,195.88v-56.95c-1.16-0.26-2.33-0.52-3.49-0.65
		c-1.42-0.13-2.85-0.26-4.27-0.26c-5.05,0-10.1,1.04-14.62,3.36c-4.4,2.2-8.15,5.44-11,9.58s-4.27,9.71-4.27,16.44
		c-0.13,4.53,0.65,9.06,2.2,13.33c1.29,3.49,3.24,6.6,5.82,9.19c2.46,2.33,5.44,4.14,8.8,5.18c3.49,1.16,7.12,1.68,10.74,1.68
		c1.94,0,3.75-0.13,5.44-0.26C227.54,196.65,228.96,196.4,230.52,195.88L230.52,195.88z"/>
</g>
</svg>
