<?xml version="1.0" encoding="utf-8"?>
<!-- Generator: Adobe Illustrator 27.1.0, SVG Export Plug-In . SVG Version: 6.00 Build 0)  -->
<svg version="1.1" id="Layer_1" xmlns="http://www.w3.org/2000/svg" xmlns:xlink="http://www.w3.org/1999/xlink" x="0px" y="0px"
	 viewBox="0 0 300 293" style="enable-background:new 0 0 300 293;" xml:space="preserve">
<style type="text/css">
	.st0{fill:#FFFFFF;}
	.st1{fill:#18000A;}
</style>
<path class="st0" d="M53.6,0h193.8c29.4,0,53.1,23.8,53.1,53.1v186.2c0,29.4-23.8,53.1-53.1,53.1H53.6c-29.4,0-53.1-23.8-53.1-53.1
	V53.1C0.5,23.7,24.2,0,53.6,0z"/>
<g>
	<path class="st1" d="M76.6,122.3l28.9-39.7H121l-29,39.7H76.6z M76.6,131.3v-9l8.5-2h35.2v11H76.6z M78.2,84.7v-11H121v8.9
		l-8.6,2.1H78.2z"/>
	<path class="st1" d="M152.4,132.2c-4.7,0-8.9-1-12.5-3c-3.6-2-6.4-4.8-8.5-8.4c-2-3.6-3.1-7.6-3.1-12.2V73.7h12.9v35.6
		c0,2.3,0.5,4.3,1.5,6c1,1.7,2.3,3,4,3.9c1.7,0.9,3.6,1.3,5.7,1.3c2.2,0,4.1-0.4,5.7-1.3c1.6-0.9,2.9-2.2,3.9-3.8
		c1-1.7,1.4-3.6,1.4-5.9V73.7h12.9v35c0,4.6-1,8.6-3,12.1c-2,3.5-4.8,6.3-8.4,8.3C161.3,131.2,157.1,132.2,152.4,132.2z"/>
	<path class="st1" d="M203.1,132.2c-4.7,0-8.8-0.8-12.2-2.3s-6.5-3.9-9.3-7.1l8.3-8.2c1.8,2.1,3.9,3.8,6.2,4.9
		c2.3,1.2,4.9,1.8,7.9,1.8c2.7,0,4.8-0.5,6.3-1.5c1.5-1,2.2-2.3,2.2-4.1c0-1.6-0.5-2.9-1.5-3.8c-1-1-2.3-1.8-3.9-2.5
		c-1.6-0.7-3.4-1.4-5.3-2c-1.9-0.7-3.8-1.4-5.7-2.2c-1.9-0.8-3.7-1.9-5.3-3.2c-1.6-1.3-2.9-2.9-3.9-4.8c-1-1.9-1.5-4.4-1.5-7.3
		c0-3.5,0.9-6.6,2.6-9.1c1.7-2.6,4.1-4.5,7.1-5.8c3-1.3,6.5-2,10.5-2c4,0,7.7,0.7,11,2.1c3.3,1.4,6.1,3.3,8.3,5.8l-8.3,8.2
		c-1.7-1.8-3.5-3.1-5.3-4c-1.8-0.9-3.8-1.3-6-1.3c-2.2,0-4,0.4-5.3,1.3c-1.3,0.8-2,2.1-2,3.6c0,1.5,0.5,2.6,1.5,3.5
		c1,0.9,2.3,1.7,3.9,2.3c1.6,0.7,3.4,1.3,5.3,2c1.9,0.7,3.8,1.4,5.7,2.3c1.9,0.9,3.7,2,5.3,3.3c1.6,1.3,2.9,3,3.9,5.1
		c1,2,1.5,4.6,1.5,7.5c0,5.5-2,9.8-5.9,12.9C215.4,130.6,210,132.2,203.1,132.2z"/>
	<path class="st1" d="M39.9,173.2V162h48.8v11.2H39.9z M57.9,219.6v-56.7h12.8v56.7H57.9z"/>
	<path class="st1" d="M84.5,219.6l22.8-57.6h11.6l22.6,57.6H128l-17.3-47.8h4.6l-17.5,47.8H84.5z M97.5,209.2v-10.4h31.4v10.4H97.5z
		"/>
	<path class="st1" d="M147.6,219.6V162h9l3.8,11.5v46.1H147.6z M187.3,219.6l-33.9-43.5l3.2-14.1l33.9,43.5L187.3,219.6z
		 M187.3,219.6l-3.4-11.5V162h12.8v57.6H187.3z"/>
	<path class="st1" d="M207.8,219.6V162h12.8v57.6H207.8z M216.4,219.6v-11.3h14.3c3.5,0,6.5-0.7,9.1-2.1c2.6-1.4,4.6-3.4,6-6.1
		c1.4-2.7,2.1-5.8,2.1-9.5c0-3.6-0.7-6.8-2.2-9.4c-1.4-2.6-3.5-4.6-6-6c-2.6-1.4-5.6-2.1-9.1-2.1H216V162h14.8c4.3,0,8.4,0.7,12,2.1
		c3.7,1.4,6.9,3.4,9.6,6c2.7,2.6,4.9,5.6,6.4,9.1c1.5,3.5,2.2,7.4,2.2,11.6c0,4.2-0.7,8-2.2,11.6c-1.5,3.5-3.6,6.6-6.3,9.1
		c-2.7,2.6-5.9,4.5-9.6,6c-3.7,1.4-7.6,2.1-11.9,2.1H216.4z"/>
</g>
</svg>
